<?xml version="1.0" encoding="UTF-8" standalone="no"?>
<svg
   xmlns:dc="http://purl.org/dc/elements/1.1/"
   xmlns:cc="http://creativecommons.org/ns#"
   xmlns:rdf="http://www.w3.org/1999/02/22-rdf-syntax-ns#"
   xmlns:svg="http://www.w3.org/2000/svg"
   xmlns="http://www.w3.org/2000/svg"
   height="480.48001"
   width="540"
   xml:space="preserve"
   viewBox="0 0 540 480.48001"
   y="0px"
   x="0px"
   id="Capa_1"
   version="1.1"><metadata
   id="metadata7624"><rdf:RDF><cc:Work
       rdf:about=""><dc:format>image/svg+xml</dc:format><dc:type
         rdf:resource="http://purl.org/dc/dcmitype/StillImage" /><dc:title></dc:title></cc:Work></rdf:RDF></metadata><defs
   id="defs7622" />
<style
   id="style6944"
   type="text/css">
	.st0{display:none;}
	.st1{display:inline;fill:#A21B41;}
	.st2{display:inline;}
	.st3{fill:#E70033;}
	.st4{fill:#4479BB;}
	.st5{fill:#4B844C;}
	.st6{enable-background:new    ;}
	.st7{fill:#116EA9;}
	.st8{clip-path:url(#SVGID_00000157267084845945516050000009421910656577225131_);}
	.st9{clip-path:url(#SVGID_00000034061735517383839170000009474133539325505192_);}
	.st10{clip-path:url(#SVGID_00000009584472513695192710000009797755425686988720_);}
	.st11{clip-path:url(#SVGID_00000011718310288446990120000016229093855527621251_);}
	.st12{fill:url(#SVGID_00000067223133449545699290000014870684470614561421_);}
	.st13{fill:url(#SVGID_00000008139953090687732950000003039517801916805780_);}
	.st14{fill:url(#SVGID_00000139263906654841071680000014635199175147381393_);}
	.st15{fill:url(#SVGID_00000142172653941631319360000017326370705787114908_);}
	.st16{fill:url(#SVGID_00000032622149126005710140000004750317099365944493_);}
	.st17{fill:url(#SVGID_00000023997088767070989540000011682251005087263112_);}
	.st18{fill:#000B8C;}
	.st19{fill-rule:evenodd;clip-rule:evenodd;fill:#000B8C;}
	.st20{fill:#75BACD;}
	.st21{fill:#EAB843;}
	.st22{fill-rule:evenodd;clip-rule:evenodd;fill:#EAB843;}
	.st23{display:inline;fill:#DC3F47;}
	.st24{fill:#66ADD5;}
	.st25{fill:#268AC3;}
	.st26{fill:#0076B9;}
	.st27{fill:#7A8634;}
	.st28{fill:#CB1517;}
</style>









<g
   transform="translate(-77.8,-19.219997)"
   id="g7617">
	
	<g
   id="g7641"><g
     id="g7607">
		<path
   class="st18"
   d="m 348.3,133.2 c -73.7,0 -120.8,54.3 -120.8,121.8 0,65.6 43.7,122.2 120.8,122.2 74.7,0 120.8,-58.6 120.8,-122.2 0,-66.5 -48.1,-121.8 -120.8,-121.8 z m 84.7,171.6 -56.3,-3.3 c -2.7,-0.2 -6.3,1.5 -7.9,3.8 L 335,351.9 c -1.6,2.2 -3.5,1.9 -4.2,-0.8 l -14.3,-56.3 c -0.7,-2.7 -3.4,-5.7 -5.9,-6.6 l -53.5,-18.7 c -2.6,-0.9 -2.8,-2.9 -0.5,-4.4 l 47.6,-31.3 c 2.3,-1.5 4.2,-5 4.2,-7.8 l 0.6,-58.3 c 0,-2.8 1.8,-3.6 3.9,-1.9 l 43.8,37 c 2.1,1.8 5.9,2.5 8.5,1.7 L 419.1,187 c 2.6,-0.8 3.9,0.6 2.9,3.2 l -20.5,54.4 c -1,2.6 -0.5,6.6 1.1,8.9 L 435,301 c 1.6,2.2 0.7,4 -2,3.8 z"
   id="path7603"
   style="fill:#000b8c" />
		<path
   class="st18"
   d="m 455.3,105.9 c -1.7,-0.1 -3.9,1 -4.9,2.4 l -21.1,29.5 c -1,1.4 -2.2,1.2 -2.6,-0.5 l -9,-35.7 C 417.3,99.9 415.6,98 414,97.4 L 380.5,85.6 c -1.6,-0.6 -1.8,-1.8 -0.3,-2.8 L 409.9,63 c 1.4,-1 2.6,-3.2 2.6,-5 l 0.4,-37 c 0,-1.8 1.1,-2.3 2.4,-1.2 l 27.4,23.5 c 1.3,1.1 3.7,1.6 5.3,1.1 l 33.7,-11.1 c 1.6,-0.5 2.4,0.4 1.8,2 l -12.8,34.5 c -0.6,1.7 -0.3,4.2 0.7,5.6 l 20.4,30 c 1,1.4 0.4,2.5 -1.3,2.4 z"
   id="path7605"
   style="fill:#000b8c" />
	</g><g
     id="g7615">
		<polygon
   class="st19"
   points="508.5,413.8 521.7,393.1 537,399.8 522,413.8 "
   id="polygon7609"
   style="clip-rule:evenodd;fill:#000b8c;fill-rule:evenodd" />
		<path
   class="st18"
   d="m 98,467.4 h 28.5 V 450.9 H 98 v -11.8 h 34.7 V 421.6 H 77.8 v 76.3 h 57.3 V 480.4 H 98 Z m 405.1,-47.8 c -24.2,0 -39.7,17.8 -39.7,40 0,21.6 14.3,40.1 39.7,40.1 24.6,0 39.7,-19.3 39.7,-40.1 0,-21.9 -15.8,-40 -39.7,-40 m 0,61.1 c -10.7,0 -18.8,-8.1 -18.8,-21.2 0,-12.7 7.8,-21.2 18.8,-21.2 12.2,0 18.7,10.1 18.7,21.2 0,13.1 -7.8,21.2 -18.7,21.2 m -218.7,-59.1 -18.2,33.3 -18.5,-33.3 h -19.3 l -3.5,76.3 h 19.4 l 1.5,-44.7 14.9,26.1 h 11.1 l 13.4,-26.1 1.8,44.7 h 20.5 L 304,421.6 Z m 31.8,76.3 h 20.2 V 421.6 H 316.2 Z M 367,421.6 h -20.2 v 76.3 h 53.7 V 480.1 H 367 Z m 61.3,0 h -20.2 v 76.3 h 53.7 v -17.8 h -33.5 z m 169.5,42.6 -29.3,-42.5 H 550.1 V 498 h 20 v -43.8 l 30.4,43.8 h 17.3 v -76.3 h -20 z"
   id="path7611"
   style="fill:#000b8c" />
		<path
   class="st18"
   d="m 164.4,421.5 h -20.2 v 76.3 h 53.7 V 480 h -33.5 z"
   id="path7613"
   style="fill:#000b8c" />
	</g></g>
</g>
</svg>